<svg xmlns="http://www.w3.org/2000/svg" xmlns:xlink="http://www.w3.org/1999/xlink" version="1.1" width="1000" height="1000" viewBox="0 0 1000 1000" xml:space="preserve">
<desc>Created with Fabric.js 3.5.0</desc>
<defs>
</defs>
<rect x="0" y="0" width="100%" height="100%" fill="rgba(255,255,255,0)"/>
<g transform="matrix(3.651 0 0 3.651 482.5477 500.0011)" id="147278">
<g style="" vector-effect="non-scaling-stroke">
		<g transform="matrix(1 0 0 1 -0.005 0)" id="Layer_1-2">
<path style="stroke: none; stroke-width: 1; stroke-dasharray: none; stroke-linecap: butt; stroke-dashoffset: 0; stroke-linejoin: miter; stroke-miterlimit: 4; is-custom-font: none; font-file-url: none; fill: rgb(255,255,255); fill-rule: nonzero; opacity: 1;" transform=" translate(-124.495, -34)" d="M 227.81 0 H 21.19 C 9.49 0 0 9 0 20 V 34 c 0 11 9.49 20 21.19 20 H 185.43 l 11.65 14 L 209.8 54 h 18 c 11.7 0 21.19 -9 21.19 -20 V 20 C 249 9 239.51 0 227.81 0 Z" stroke-linecap="round"/>
</g>
		<g transform="matrix(1 0 0 1 -74.49 -7.18)" id="Layer_1-2">
<circle style="stroke: none; stroke-width: 1; stroke-dasharray: none; stroke-linecap: butt; stroke-dashoffset: 0; stroke-linejoin: miter; stroke-miterlimit: 4; is-custom-font: none; font-file-url: none; fill: rgb(254,199,60); fill-rule: nonzero; opacity: 1;" cx="0" cy="0" r="13.5"/>
</g>
		<g transform="matrix(1 0 0 1 -69.12 2.294)" id="Layer_1-2">
<path style="stroke: none; stroke-width: 1; stroke-dasharray: none; stroke-linecap: butt; stroke-dashoffset: 0; stroke-linejoin: miter; stroke-miterlimit: 4; is-custom-font: none; font-file-url: none; fill: rgb(240,58,22); fill-rule: nonzero; opacity: 1;" transform=" translate(-55.38, -36.294)" d="M 55.36 32.32 a 19.15 19.15 0 0 1 2.09 3.06 a 8.33 8.33 0 0 1 0.76 2.84 A 2.43 2.43 0 0 1 57.4 40 a 2 2 0 0 1 -2 0 c -0.39 -0.2 -0.89 -0.52 -1.62 -2.18 a 18 18 0 0 1 -1.23 -4.17 Z" stroke-linecap="round"/>
</g>
		<g transform="matrix(1 0 0 1 -79.675 -10.9786)" id="Layer_1-2">
<path style="stroke: rgb(0,0,0); stroke-width: 1.68; stroke-dasharray: none; stroke-linecap: round; stroke-dashoffset: 0; stroke-linejoin: miter; stroke-miterlimit: 10; is-custom-font: none; font-file-url: none; fill: none; fill-rule: nonzero; opacity: 1;" transform=" translate(-44.825, -23.0214)" d="M 47.27 23.82 a 2.67 2.67 0 0 0 -4.89 0" stroke-linecap="round"/>
</g>
		<g transform="matrix(1 0 0 1 -69.945 -10.9786)" id="Layer_1-2">
<path style="stroke: rgb(0,0,0); stroke-width: 1.68; stroke-dasharray: none; stroke-linecap: round; stroke-dashoffset: 0; stroke-linejoin: miter; stroke-miterlimit: 10; is-custom-font: none; font-file-url: none; fill: none; fill-rule: nonzero; opacity: 1;" transform=" translate(-54.555, -23.0214)" d="M 57 23.82 a 2.67 2.67 0 0 0 -4.89 0" stroke-linecap="round"/>
</g>
		<g transform="matrix(1 0 0 1 -74.495 -1.6724)" id="Layer_1-2">
<path style="stroke: rgb(0,0,0); stroke-width: 2; stroke-dasharray: none; stroke-linecap: round; stroke-dashoffset: 0; stroke-linejoin: round; stroke-miterlimit: 4; is-custom-font: none; font-file-url: none; fill: none; fill-rule: nonzero; opacity: 1;" transform=" translate(-50.005, -32.3276)" d="M 42.51 30.76 a 9.4 9.4 0 0 0 6.87 3.75 a 9.16 9.16 0 0 0 8.12 -4.37" stroke-linecap="round"/>
</g>
		<g transform="matrix(1 0 0 1 -74.5003 -7.1794)" id="Layer_1-2">
<path style="stroke: rgb(0,0,0); stroke-width: 2; stroke-dasharray: none; stroke-linecap: butt; stroke-dashoffset: 0; stroke-linejoin: miter; stroke-miterlimit: 10; is-custom-font: none; font-file-url: none; fill: none; fill-rule: nonzero; opacity: 1;" transform=" translate(-49.9997, -26.8207)" d="M 55.07 39.87 a 1.88 1.88 0 0 0 0.59 0.45 a 2 2 0 0 0 2 0 a 2.48 2.48 0 0 0 0.82 -1.81 a 2.74 2.74 0 0 0 0 -0.55 a 14 14 0 1 0 -3.41 1.91 Z" stroke-linecap="round"/>
</g>
		<g transform="matrix(1 0 0 1 -35.4354 -7.194)" id="Layer_1-2">
<path style="stroke: none; stroke-width: 1; stroke-dasharray: none; stroke-linecap: butt; stroke-dashoffset: 0; stroke-linejoin: miter; stroke-miterlimit: 4; is-custom-font: none; font-file-url: none; fill: rgb(36,31,66); fill-rule: nonzero; opacity: 1;" transform=" translate(-89.0646, -26.8059)" d="M 89.06 32.58 a 5.88 5.88 0 0 1 -2.45 -0.47 A 3.53 3.53 0 0 1 85 30.65 a 5.12 5.12 0 0 1 -0.62 -2.45 c 0 -0.46 0 -0.92 0 -1.36 s 0 -0.91 0 -1.38 A 4.85 4.85 0 0 1 85 23 a 3.72 3.72 0 0 1 1.62 -1.47 a 6.06 6.06 0 0 1 4.82 0 A 3.77 3.77 0 0 1 93.11 23 a 5.07 5.07 0 0 1 0.64 2.43 q 0 0.7 0 1.38 c 0 0.44 0 0.9 0 1.36 a 5.12 5.12 0 0 1 -0.63 2.45 a 3.51 3.51 0 0 1 -1.61 1.46 A 5.88 5.88 0 0 1 89.06 32.58 Z m 0 -1.84 a 2.32 2.32 0 0 0 1.69 -0.62 a 2.76 2.76 0 0 0 0.71 -2 c 0 -0.47 0 -0.91 0 -1.31 s 0 -0.83 0 -1.29 A 3.43 3.43 0 0 0 91.11 24 a 1.87 1.87 0 0 0 -0.84 -0.85 a 2.92 2.92 0 0 0 -2.41 0 A 2 2 0 0 0 87 24 a 3.58 3.58 0 0 0 -0.35 1.51 c 0 0.46 0 0.89 0 1.29 s 0 0.84 0 1.31 a 2.81 2.81 0 0 0 0.71 2 A 2.31 2.31 0 0 0 89.06 30.74 Z" stroke-linecap="round"/>
</g>
		<g transform="matrix(1 0 0 1 -22.6178 -5.8419)" id="Layer_1-2">
<path style="stroke: none; stroke-width: 1; stroke-dasharray: none; stroke-linecap: butt; stroke-dashoffset: 0; stroke-linejoin: miter; stroke-miterlimit: 4; is-custom-font: none; font-file-url: none; fill: rgb(36,31,66); fill-rule: nonzero; opacity: 1;" transform=" translate(-101.8821, -28.1581)" d="M 96.07 32.42 a 0.41 0.41 0 0 1 -0.28 -0.11 a 0.4 0.4 0 0 1 -0.11 -0.27 V 24.49 a 0.38 0.38 0 0 1 0.39 -0.39 h 1.24 a 0.38 0.38 0 0 1 0.39 0.39 V 25 a 2.72 2.72 0 0 1 0.9 -0.76 a 2.87 2.87 0 0 1 1.35 -0.33 a 2.54 2.54 0 0 1 2.55 1.42 a 2.77 2.77 0 0 1 1.06 -1 a 3.23 3.23 0 0 1 3.06 0 a 2.71 2.71 0 0 1 1.07 1.17 a 4.33 4.33 0 0 1 0.39 2 V 32 a 0.4 0.4 0 0 1 -0.11 0.27 a 0.39 0.39 0 0 1 -0.27 0.11 h -1.31 a 0.41 0.41 0 0 1 -0.28 -0.11 A 0.4 0.4 0 0 1 106 32 V 27.57 a 2.58 2.58 0 0 0 -0.21 -1.14 a 1.22 1.22 0 0 0 -0.56 -0.6 a 1.66 1.66 0 0 0 -0.78 -0.18 a 1.49 1.49 0 0 0 -0.7 0.18 a 1.35 1.35 0 0 0 -0.58 0.6 a 2.43 2.43 0 0 0 -0.22 1.14 V 32 a 0.37 0.37 0 0 1 -0.12 0.27 a 0.37 0.37 0 0 1 -0.27 0.11 h -1.31 a 0.37 0.37 0 0 1 -0.27 -0.11 a 0.36 0.36 0 0 1 -0.11 -0.27 V 27.57 a 2.42 2.42 0 0 0 -0.23 -1.14 a 1.38 1.38 0 0 0 -0.57 -0.6 a 1.67 1.67 0 0 0 -0.76 -0.18 a 1.49 1.49 0 0 0 -0.72 0.19 a 1.38 1.38 0 0 0 -0.57 0.6 a 2.35 2.35 0 0 0 -0.23 1.13 V 32 a 0.36 0.36 0 0 1 -0.11 0.27 a 0.37 0.37 0 0 1 -0.27 0.11 Z" stroke-linecap="round"/>
</g>
		<g transform="matrix(1 0 0 1 -11.5902 -6.3795)" id="Layer_1-2">
<path style="stroke: none; stroke-width: 1; stroke-dasharray: none; stroke-linecap: butt; stroke-dashoffset: 0; stroke-linejoin: miter; stroke-miterlimit: 4; is-custom-font: none; font-file-url: none; fill: rgb(36,31,66); fill-rule: nonzero; opacity: 1;" transform=" translate(-112.9098, -27.6205)" d="M 110.45 28.53 a 0.34 0.34 0 0 1 -0.28 -0.11 a 0.36 0.36 0 0 1 -0.1 -0.27 V 27.09 a 0.39 0.39 0 0 1 0.1 -0.27 a 0.38 0.38 0 0 1 0.28 -0.11 h 4.91 a 0.37 0.37 0 0 1 0.27 0.11 a 0.37 0.37 0 0 1 0.12 0.27 v 1.06 a 0.34 0.34 0 0 1 -0.12 0.27 a 0.33 0.33 0 0 1 -0.27 0.11 Z" stroke-linecap="round"/>
</g>
		<g transform="matrix(1 0 0 1 -2.7141 -5.8206)" id="Layer_1-2">
<path style="stroke: none; stroke-width: 1; stroke-dasharray: none; stroke-linecap: butt; stroke-dashoffset: 0; stroke-linejoin: miter; stroke-miterlimit: 4; is-custom-font: none; font-file-url: none; fill: rgb(36,31,66); fill-rule: nonzero; opacity: 1;" transform=" translate(-121.7859, -28.1794)" d="M 118.19 32.42 a 0.38 0.38 0 0 1 -0.38 -0.38 V 24.49 a 0.41 0.41 0 0 1 0.11 -0.28 a 0.4 0.4 0 0 1 0.27 -0.11 h 1.32 a 0.4 0.4 0 0 1 0.27 0.11 a 0.41 0.41 0 0 1 0.11 0.28 v 0.65 a 3.48 3.48 0 0 1 1.06 -0.86 a 3.55 3.55 0 0 1 1.61 -0.34 a 3.23 3.23 0 0 1 1.7 0.44 a 2.91 2.91 0 0 1 1.11 1.24 a 4.32 4.32 0 0 1 0.39 1.92 V 32 a 0.4 0.4 0 0 1 -0.11 0.27 a 0.39 0.39 0 0 1 -0.27 0.11 H 124 a 0.37 0.37 0 0 1 -0.27 -0.11 a 0.36 0.36 0 0 1 -0.11 -0.27 v -4.4 a 2.18 2.18 0 0 0 -0.46 -1.46 a 1.65 1.65 0 0 0 -1.32 -0.53 a 1.74 1.74 0 0 0 -1.33 0.53 a 2 2 0 0 0 -0.49 1.46 V 32 a 0.37 0.37 0 0 1 -0.12 0.27 a 0.37 0.37 0 0 1 -0.27 0.11 Z" stroke-linecap="round"/>
</g>
		<g transform="matrix(1 0 0 1 6.98 -5.7385)" id="Layer_1-2">
<path style="stroke: none; stroke-width: 1; stroke-dasharray: none; stroke-linecap: butt; stroke-dashoffset: 0; stroke-linejoin: miter; stroke-miterlimit: 4; is-custom-font: none; font-file-url: none; fill: rgb(36,31,66); fill-rule: nonzero; opacity: 1;" transform=" translate(-131.48, -28.2615)" d="M 131.47 32.58 a 4.65 4.65 0 0 1 -2.15 -0.45 A 3.18 3.18 0 0 1 128 30.87 a 4.57 4.57 0 0 1 -0.52 -1.91 c 0 -0.19 0 -0.42 0 -0.7 s 0 -0.51 0 -0.7 a 4.27 4.27 0 0 1 0.54 -1.92 a 3.24 3.24 0 0 1 1.34 -1.25 a 5.22 5.22 0 0 1 4.24 0 a 3.33 3.33 0 0 1 1.35 1.25 a 4.27 4.27 0 0 1 0.53 1.92 c 0 0.19 0 0.42 0 0.7 s 0 0.51 0 0.7 a 4.29 4.29 0 0 1 -0.52 1.91 a 3.06 3.06 0 0 1 -1.33 1.26 A 4.62 4.62 0 0 1 131.47 32.58 Z m 0 -1.58 a 1.65 1.65 0 0 0 1.32 -0.54 a 2.58 2.58 0 0 0 0.51 -1.58 c 0 -0.16 0 -0.36 0 -0.62 s 0 -0.46 0 -0.62 a 2.58 2.58 0 0 0 -0.51 -1.58 a 1.87 1.87 0 0 0 -2.63 0 a 2.52 2.52 0 0 0 -0.51 1.58 c 0 0.16 0 0.36 0 0.62 s 0 0.46 0 0.62 a 2.52 2.52 0 0 0 0.51 1.58 A 1.64 1.64 0 0 0 131.47 31 Z" stroke-linecap="round"/>
</g>
		<g transform="matrix(1 0 0 1 18.9622 -5.8414)" id="Layer_1-2">
<path style="stroke: none; stroke-width: 1; stroke-dasharray: none; stroke-linecap: butt; stroke-dashoffset: 0; stroke-linejoin: miter; stroke-miterlimit: 4; is-custom-font: none; font-file-url: none; fill: rgb(36,31,66); fill-rule: nonzero; opacity: 1;" transform=" translate(-143.4622, -28.1586)" d="M 137.65 32.42 a 0.37 0.37 0 0 1 -0.27 -0.11 a 0.37 0.37 0 0 1 -0.12 -0.27 V 24.49 a 0.38 0.38 0 0 1 0.12 -0.28 a 0.37 0.37 0 0 1 0.27 -0.11 h 1.25 a 0.4 0.4 0 0 1 0.27 0.11 a 0.41 0.41 0 0 1 0.11 0.28 V 25 a 2.82 2.82 0 0 1 0.9 -0.76 a 2.88 2.88 0 0 1 1.36 -0.33 a 2.54 2.54 0 0 1 2.54 1.42 a 2.84 2.84 0 0 1 1.06 -1 a 3.13 3.13 0 0 1 1.55 -0.39 a 3.08 3.08 0 0 1 1.51 0.38 a 2.71 2.71 0 0 1 1.07 1.17 a 4.33 4.33 0 0 1 0.39 2 V 32 a 0.36 0.36 0 0 1 -0.11 0.27 a 0.37 0.37 0 0 1 -0.27 0.11 H 148 a 0.37 0.37 0 0 1 -0.27 -0.11 a 0.37 0.37 0 0 1 -0.12 -0.27 V 27.57 a 2.59 2.59 0 0 0 -0.2 -1.14 a 1.31 1.31 0 0 0 -0.56 -0.6 a 1.73 1.73 0 0 0 -0.79 -0.18 a 1.52 1.52 0 0 0 -0.7 0.18 a 1.35 1.35 0 0 0 -0.58 0.6 a 2.43 2.43 0 0 0 -0.22 1.14 V 32 a 0.4 0.4 0 0 1 -0.11 0.27 a 0.41 0.41 0 0 1 -0.28 0.11 h -1.31 a 0.38 0.38 0 0 1 -0.38 -0.38 V 27.57 a 2.42 2.42 0 0 0 -0.23 -1.14 a 1.33 1.33 0 0 0 -0.57 -0.6 a 1.66 1.66 0 0 0 -0.75 -0.18 a 1.44 1.44 0 0 0 -0.72 0.19 a 1.35 1.35 0 0 0 -0.58 0.6 a 2.36 2.36 0 0 0 -0.22 1.13 V 32 a 0.37 0.37 0 0 1 -0.12 0.27 a 0.37 0.37 0 0 1 -0.27 0.11 Z" stroke-linecap="round"/>
</g>
		<g transform="matrix(1 0 0 1 29.9597 -6.3795)" id="Layer_1-2">
<path style="stroke: none; stroke-width: 1; stroke-dasharray: none; stroke-linecap: butt; stroke-dashoffset: 0; stroke-linejoin: miter; stroke-miterlimit: 4; is-custom-font: none; font-file-url: none; fill: rgb(36,31,66); fill-rule: nonzero; opacity: 1;" transform=" translate(-154.4597, -27.6205)" d="M 152 28.53 a 0.34 0.34 0 0 1 -0.28 -0.11 a 0.36 0.36 0 0 1 -0.1 -0.27 V 27.09 a 0.39 0.39 0 0 1 0.1 -0.27 a 0.38 0.38 0 0 1 0.28 -0.11 h 4.91 a 0.41 0.41 0 0 1 0.28 0.11 a 0.4 0.4 0 0 1 0.11 0.27 v 1.06 a 0.38 0.38 0 0 1 -0.39 0.38 Z" stroke-linecap="round"/>
</g>
		<g transform="matrix(1 0 0 1 38.8908 -5.8206)" id="Layer_1-2">
<path style="stroke: none; stroke-width: 1; stroke-dasharray: none; stroke-linecap: butt; stroke-dashoffset: 0; stroke-linejoin: miter; stroke-miterlimit: 4; is-custom-font: none; font-file-url: none; fill: rgb(36,31,66); fill-rule: nonzero; opacity: 1;" transform=" translate(-163.3908, -28.1793)" d="M 159.78 32.42 a 0.41 0.41 0 0 1 -0.28 -0.11 a 0.4 0.4 0 0 1 -0.11 -0.27 V 24.49 a 0.38 0.38 0 0 1 0.39 -0.39 h 1.31 a 0.38 0.38 0 0 1 0.38 0.39 v 0.65 a 3.41 3.41 0 0 1 1.07 -0.86 a 3.48 3.48 0 0 1 1.6 -0.34 a 3.21 3.21 0 0 1 1.7 0.44 A 2.91 2.91 0 0 1 167 25.62 a 4.32 4.32 0 0 1 0.39 1.92 V 32 a 0.36 0.36 0 0 1 -0.11 0.27 a 0.37 0.37 0 0 1 -0.27 0.11 h -1.41 a 0.38 0.38 0 0 1 -0.38 -0.38 v -4.4 a 2.13 2.13 0 0 0 -0.46 -1.46 a 1.65 1.65 0 0 0 -1.32 -0.53 a 1.77 1.77 0 0 0 -1.33 0.53 a 2 2 0 0 0 -0.49 1.46 V 32 a 0.4 0.4 0 0 1 -0.11 0.27 a 0.41 0.41 0 0 1 -0.28 0.11 Z" stroke-linecap="round"/>
</g>
		<g transform="matrix(1 0 0 1 48.56 -5.7399)" id="Layer_1-2">
<path style="stroke: none; stroke-width: 1; stroke-dasharray: none; stroke-linecap: butt; stroke-dashoffset: 0; stroke-linejoin: miter; stroke-miterlimit: 4; is-custom-font: none; font-file-url: none; fill: rgb(36,31,66); fill-rule: nonzero; opacity: 1;" transform=" translate(-173.06, -28.2601)" d="M 173.06 32.58 a 4.7 4.7 0 0 1 -2.16 -0.45 a 3.09 3.09 0 0 1 -1.32 -1.26 a 4.29 4.29 0 0 1 -0.52 -1.91 c 0 -0.19 0 -0.42 0 -0.7 s 0 -0.51 0 -0.7 a 4.27 4.27 0 0 1 0.53 -1.92 a 3.27 3.27 0 0 1 1.35 -1.25 a 4.55 4.55 0 0 1 2.12 -0.45 a 4.61 4.61 0 0 1 2.12 0.45 a 3.24 3.24 0 0 1 1.34 1.25 a 4.4 4.4 0 0 1 0.54 1.92 c 0 0.19 0 0.42 0 0.7 s 0 0.51 0 0.7 a 4.57 4.57 0 0 1 -0.52 1.91 a 3.18 3.18 0 0 1 -1.33 1.26 A 4.65 4.65 0 0 1 173.06 32.58 Z m 0 -1.58 a 1.64 1.64 0 0 0 1.31 -0.54 a 2.52 2.52 0 0 0 0.51 -1.58 c 0 -0.16 0 -0.36 0 -0.62 s 0 -0.46 0 -0.62 a 2.52 2.52 0 0 0 -0.51 -1.58 a 1.87 1.87 0 0 0 -2.63 0 a 2.52 2.52 0 0 0 -0.51 1.58 c 0 0.16 0 0.36 0 0.62 s 0 0.46 0 0.62 a 2.52 2.52 0 0 0 0.51 1.58 A 1.65 1.65 0 0 0 173.06 31 Z" stroke-linecap="round"/>
</g>
		<g transform="matrix(1 0 0 1 60.5522 -5.8418)" id="Layer_1-2">
<path style="stroke: none; stroke-width: 1; stroke-dasharray: none; stroke-linecap: butt; stroke-dashoffset: 0; stroke-linejoin: miter; stroke-miterlimit: 4; is-custom-font: none; font-file-url: none; fill: rgb(36,31,66); fill-rule: nonzero; opacity: 1;" transform=" translate(-185.0522, -28.1583)" d="M 179.23 32.42 a 0.38 0.38 0 0 1 -0.38 -0.38 V 24.49 a 0.41 0.41 0 0 1 0.11 -0.28 a 0.4 0.4 0 0 1 0.27 -0.11 h 1.25 a 0.37 0.37 0 0 1 0.27 0.11 a 0.38 0.38 0 0 1 0.12 0.28 V 25 a 2.72 2.72 0 0 1 0.9 -0.76 a 2.87 2.87 0 0 1 1.35 -0.33 a 2.53 2.53 0 0 1 2.54 1.42 a 2.79 2.79 0 0 1 1.07 -1 a 3.23 3.23 0 0 1 3.06 0 a 2.71 2.71 0 0 1 1.07 1.17 a 4.33 4.33 0 0 1 0.39 2 V 32 a 0.38 0.38 0 0 1 -0.38 0.38 h -1.32 a 0.38 0.38 0 0 1 -0.38 -0.38 V 27.57 a 2.58 2.58 0 0 0 -0.21 -1.14 a 1.26 1.26 0 0 0 -0.56 -0.6 a 1.66 1.66 0 0 0 -0.78 -0.18 a 1.56 1.56 0 0 0 -0.71 0.18 a 1.38 1.38 0 0 0 -0.57 0.6 a 2.42 2.42 0 0 0 -0.23 1.14 V 32 a 0.36 0.36 0 0 1 -0.11 0.27 a 0.37 0.37 0 0 1 -0.27 0.11 h -1.31 a 0.41 0.41 0 0 1 -0.28 -0.11 A 0.4 0.4 0 0 1 184 32 V 27.57 a 2.43 2.43 0 0 0 -0.22 -1.14 a 1.35 1.35 0 0 0 -0.58 -0.6 a 1.6 1.6 0 0 0 -0.75 -0.18 a 1.49 1.49 0 0 0 -0.72 0.19 a 1.4 1.4 0 0 0 -0.58 0.6 a 2.49 2.49 0 0 0 -0.22 1.13 V 32 a 0.38 0.38 0 0 1 -0.38 0.38 Z" stroke-linecap="round"/>
</g>
		<g transform="matrix(1 0 0 1 69.865 -2.765)" id="Layer_1-2">
<path style="stroke: none; stroke-width: 1; stroke-dasharray: none; stroke-linecap: butt; stroke-dashoffset: 0; stroke-linejoin: miter; stroke-miterlimit: 4; is-custom-font: none; font-file-url: none; fill: rgb(36,31,66); fill-rule: nonzero; opacity: 1;" transform=" translate(-194.365, -31.235)" d="M 193.57 32.42 a 0.37 0.37 0 0 1 -0.27 -0.11 a 0.37 0.37 0 0 1 -0.12 -0.27 V 30.45 a 0.4 0.4 0 0 1 0.12 -0.29 a 0.37 0.37 0 0 1 0.27 -0.11 h 1.6 a 0.37 0.37 0 0 1 0.27 0.11 a 0.44 0.44 0 0 1 0.11 0.29 V 32 a 0.4 0.4 0 0 1 -0.11 0.27 a 0.37 0.37 0 0 1 -0.27 0.11 Z" stroke-linecap="round"/>
</g>
		<g transform="matrix(1 0 0 1 74.155 -2.765)" id="Layer_1-2">
<path style="stroke: none; stroke-width: 1; stroke-dasharray: none; stroke-linecap: butt; stroke-dashoffset: 0; stroke-linejoin: miter; stroke-miterlimit: 4; is-custom-font: none; font-file-url: none; fill: rgb(36,31,66); fill-rule: nonzero; opacity: 1;" transform=" translate(-198.655, -31.235)" d="M 197.86 32.42 a 0.41 0.41 0 0 1 -0.28 -0.11 a 0.4 0.4 0 0 1 -0.11 -0.27 V 30.45 a 0.44 0.44 0 0 1 0.11 -0.29 a 0.41 0.41 0 0 1 0.28 -0.11 h 1.6 a 0.4 0.4 0 0 1 0.27 0.11 a 0.44 0.44 0 0 1 0.11 0.29 V 32 a 0.38 0.38 0 0 1 -0.38 0.38 Z" stroke-linecap="round"/>
</g>
		<g transform="matrix(1 0 0 1 78.445 -2.765)" id="Layer_1-2">
<path style="stroke: none; stroke-width: 1; stroke-dasharray: none; stroke-linecap: butt; stroke-dashoffset: 0; stroke-linejoin: miter; stroke-miterlimit: 4; is-custom-font: none; font-file-url: none; fill: rgb(36,31,66); fill-rule: nonzero; opacity: 1;" transform=" translate(-202.945, -31.235)" d="M 202.14 32.42 a 0.38 0.38 0 0 1 -0.38 -0.38 V 30.45 a 0.44 0.44 0 0 1 0.11 -0.29 a 0.4 0.4 0 0 1 0.27 -0.11 h 1.61 a 0.4 0.4 0 0 1 0.27 0.11 a 0.44 0.44 0 0 1 0.11 0.29 V 32 a 0.38 0.38 0 0 1 -0.38 0.38 Z" stroke-linecap="round"/>
</g>
</g>
</g>
<g transform="matrix(2.9332 0 0 0.6659 558.5418 483.0873)" id="86461" clip-path="url(#CLIPPATH_2)">
<clipPath id="CLIPPATH_2">
	<rect transform="matrix(1 0 0 1 0.0001 0.0002)" id="clip0_302_100" x="-79" y="-79" rx="0" ry="0" width="158" height="158"/>
</clipPath>
<path style="stroke: rgb(255,255,255); stroke-width: 5; stroke-dasharray: none; stroke-linecap: butt; stroke-dashoffset: 0; stroke-linejoin: miter; stroke-miterlimit: 4; is-custom-font: none; font-file-url: none; fill: rgb(255,255,255); fill-rule: nonzero; opacity: 1;" vector-effect="non-scaling-stroke" transform=" translate(-78.9999, -78.9998)" d="M 154.685 0.000367219 H 3.31409 C 1.48378 0.000367219 0 1.48415 0 3.31478 V 154.686 C 0 156.516 1.48378 158 3.31409 158 H 154.685 C 156.515 158 157.999 156.516 157.999 154.686 V 3.31478 C 158 3.26912 158 3.22347 157.999 3.17813 C 157.962 1.38523 156.478 -0.0373614 154.685 0.000367219 Z" stroke-linecap="round"/>
</g>
<g transform="matrix(1 0 0 1 552.6507 472.6824)" style="" id="894597">
		
<path xml:space="preserve" font-family="Assistant" font-size="57" font-style="normal" font-weight="bold" style="stroke: none; stroke-width: 1; stroke-dasharray: none; stroke-linecap: butt; stroke-dashoffset: 0; stroke-linejoin: miter; stroke-miterlimit: 4; is-custom-font: none; font-file-url: none; fill: rgb(0,0,0); fill-rule: nonzero; opacity: 1; white-space: pre;" d="M-217.91 17.91L-225.38 17.91L-225.38-19.32L-217.34-19.32L-207.02 0.01L-203.32 8.10L-203.09 8.10Q-203.38 5.14-203.72 1.60Q-204.06-1.93-204.06-5.18L-204.06-5.18L-204.06-19.32L-196.65-19.32L-196.65 17.91L-204.63 17.91L-214.95-1.42L-218.71-9.51L-218.94-9.51Q-218.65-6.49-218.28-3.01Q-217.91 0.46-217.91 3.66L-217.91 3.66L-217.91 17.91ZM-185.53 29.08L-185.53 29.08Q-186.79 29.08-187.70 28.91Q-188.61 28.74-189.47 28.51L-189.47 28.51L-188.04 22.58Q-187.64 22.64-187.10 22.78Q-186.56 22.92-186.10 22.92L-186.10 22.92Q-184.00 22.92-182.77 21.78Q-181.54 20.64-180.97 18.88L-180.97 18.88L-180.52 17.28L-191.46-10.31L-183.60-10.31L-179.32 2.40Q-178.69 4.28-178.13 6.28Q-177.55 8.27-176.98 10.38L-176.98 10.38L-176.76 10.38Q-176.24 8.39-175.76 6.36Q-175.27 4.34-174.76 2.40L-174.76 2.40L-171.06-10.31L-163.59-10.31L-173.51 18.53Q-174.82 21.90-176.36 24.26Q-177.90 26.63-180.12 27.85Q-182.34 29.08-185.53 29.08ZM-152.02 18.59L-152.02 18.59Q-154.58 18.59-156.47 17.48Q-158.35 16.37-159.37 14.46Q-160.40 12.55-160.40 10.15L-160.40 10.15Q-160.40 5.71-156.58 3.20Q-152.76 0.69-144.32-0.22L-144.32-0.22Q-144.38-1.53-144.84-2.56Q-145.29-3.58-146.32-4.18Q-147.34-4.78-149.00-4.78L-149.00-4.78Q-150.88-4.78-152.73-4.04Q-154.58-3.30-156.58-2.16L-156.58-2.16L-159.37-7.29Q-157.66-8.31-155.75-9.17Q-153.84-10.02-151.79-10.51Q-149.74-10.99-147.52-10.99L-147.52-10.99Q-143.93-10.99-141.47-9.57Q-139.02-8.14-137.77-5.38Q-136.52-2.61-136.52 1.60L-136.52 1.60L-136.52 17.91L-142.90 17.91L-143.47 14.94L-143.64 14.94Q-145.46 16.54-147.54 17.56Q-149.63 18.59-152.02 18.59ZM-149.45 12.55L-149.45 12.55Q-147.92 12.55-146.75 11.84Q-145.58 11.12-144.32 9.93L-144.32 9.93L-144.32 4.51Q-147.57 4.97-149.45 5.68Q-151.34 6.39-152.13 7.39Q-152.93 8.39-152.93 9.53L-152.93 9.53Q-152.93 11.07-151.96 11.81Q-150.99 12.55-149.45 12.55ZM-121.41 17.91L-129.16 17.91L-129.16-10.31L-122.84-10.31L-122.27-6.60L-122.04-6.60Q-120.33-8.37-118.28-9.68Q-116.22-10.99-113.49-10.99L-113.49-10.99Q-110.47-10.99-108.59-9.71Q-106.70-8.43-105.68-6.15L-105.68-6.15Q-103.80-8.14-101.66-9.57Q-99.52-10.99-96.79-10.99L-96.79-10.99Q-92.23-10.99-90.12-7.97Q-88.01-4.95-88.01 0.35L-88.01 0.35L-88.01 17.91L-95.76 17.91L-95.76 1.32Q-95.76-1.87-96.67-3.10Q-97.58-4.32-99.52-4.32L-99.52-4.32Q-100.72-4.32-101.97-3.61Q-103.23-2.90-104.71-1.36L-104.71-1.36L-104.71 17.91L-112.46 17.91L-112.46 1.32Q-112.46-1.87-113.37-3.10Q-114.29-4.32-116.22-4.32L-116.22-4.32Q-118.56-4.32-121.41-1.36L-121.41-1.36L-121.41 17.91ZM-68.12 6.28L-81.97 6.28L-81.97 0.69L-68.12 0.69L-68.12 6.28ZM-54.04 17.91L-61.79 17.91L-61.79-10.31L-55.46-10.31L-54.89-6.66L-54.66-6.66Q-52.84-8.43-50.64-9.71Q-48.45-10.99-45.54-10.99L-45.54-10.99Q-40.98-10.99-38.90-7.97Q-36.82-4.95-36.82 0.35L-36.82 0.35L-36.82 17.91L-44.63 17.91L-44.63 1.32Q-44.63-1.87-45.51-3.10Q-46.40-4.32-48.39-4.32L-48.39-4.32Q-50.10-4.32-51.30-3.55Q-52.50-2.79-54.04-1.36L-54.04-1.36L-54.04 17.91ZM-26.68 29.08L-26.68 29.08Q-27.93 29.08-28.84 28.91Q-29.75 28.74-30.61 28.51L-30.61 28.51L-29.18 22.58Q-28.79 22.64-28.24 22.78Q-27.70 22.92-27.25 22.92L-27.25 22.92Q-25.14 22.92-23.91 21.78Q-22.69 20.64-22.12 18.88L-22.12 18.88L-21.66 17.28L-32.60-10.31L-24.74-10.31L-20.46 2.40Q-19.84 4.28-19.27 6.28Q-18.70 8.27-18.13 10.38L-18.13 10.38L-17.90 10.38Q-17.39 8.39-16.90 6.36Q-16.42 4.34-15.90 2.40L-15.90 2.40L-12.20-10.31L-4.73-10.31L-14.65 18.53Q-15.96 21.90-17.50 24.26Q-19.04 26.63-21.26 27.85Q-23.48 29.08-26.68 29.08ZM6.84 18.59L6.84 18.59Q4.27 18.59 2.39 17.48Q0.51 16.37-0.51 14.46Q-1.54 12.55-1.54 10.15L-1.54 10.15Q-1.54 5.71 2.28 3.20Q6.10 0.69 14.53-0.22L14.53-0.22Q14.48-1.53 14.02-2.56Q13.57-3.58 12.54-4.18Q11.51-4.78 9.86-4.78L9.86-4.78Q7.98-4.78 6.13-4.04Q4.27-3.30 2.28-2.16L2.28-2.16L-0.51-7.29Q1.20-8.31 3.11-9.17Q5.02-10.02 7.07-10.51Q9.12-10.99 11.34-10.99L11.34-10.99Q14.93-10.99 17.38-9.57Q19.84-8.14 21.09-5.38Q22.34-2.61 22.34 1.60L22.34 1.60L22.34 17.91L15.96 17.91L15.39 14.94L15.22 14.94Q13.39 16.54 11.31 17.56Q9.23 18.59 6.84 18.59ZM9.40 12.55L9.40 12.55Q10.94 12.55 12.11 11.84Q13.28 11.12 14.53 9.93L14.53 9.93L14.53 4.51Q11.29 4.97 9.40 5.68Q7.52 6.39 6.73 7.39Q5.93 8.39 5.93 9.53L5.93 9.53Q5.93 11.07 6.90 11.81Q7.87 12.55 9.40 12.55ZM37.45 17.91L29.70 17.91L29.70-10.31L36.02-10.31L36.59-6.60L36.82-6.60Q38.53-8.37 40.58-9.68Q42.64-10.99 45.37-10.99L45.37-10.99Q48.39-10.99 50.27-9.71Q52.16-8.43 53.18-6.15L53.18-6.15Q55.06-8.14 57.20-9.57Q59.34-10.99 62.07-10.99L62.07-10.99Q66.63-10.99 68.74-7.97Q70.85-4.95 70.85 0.35L70.85 0.35L70.85 17.91L63.10 17.91L63.10 1.32Q63.10-1.87 62.19-3.10Q61.27-4.32 59.34-4.32L59.34-4.32Q58.14-4.32 56.89-3.61Q55.63-2.90 54.15-1.36L54.15-1.36L54.15 17.91L46.40 17.91L46.40 1.32Q46.40-1.87 45.49-3.10Q44.57-4.32 42.64-4.32L42.64-4.32Q40.30-4.32 37.45-1.36L37.45-1.36L37.45 17.91ZM90.74 6.28L76.89 6.28L76.89 0.69L90.74 0.69L90.74 6.28ZM104.82 17.91L97.07 17.91L97.07-10.31L103.40-10.31L103.97-6.66L104.20-6.66Q106.02-8.43 108.21-9.71Q110.41-10.99 113.32-10.99L113.32-10.99Q117.88-10.99 119.96-7.97Q122.04-4.95 122.04 0.35L122.04 0.35L122.04 17.91L114.23 17.91L114.23 1.32Q114.23-1.87 113.34-3.10Q112.46-4.32 110.47-4.32L110.47-4.32Q108.76-4.32 107.56-3.55Q106.36-2.79 104.82-1.36L104.82-1.36L104.82 17.91ZM132.18 29.08L132.18 29.08Q130.93 29.08 130.02 28.91Q129.10 28.74 128.25 28.51L128.25 28.51L129.68 22.58Q130.07 22.64 130.62 22.78Q131.16 22.92 131.61 22.92L131.61 22.92Q133.72 22.92 134.95 21.78Q136.17 20.64 136.74 18.88L136.74 18.88L137.20 17.28L126.25-10.31L134.12-10.31L138.40 2.40Q139.02 4.28 139.59 6.28Q140.16 8.27 140.73 10.38L140.73 10.38L140.96 10.38Q141.47 8.39 141.96 6.36Q142.44 4.34 142.96 2.40L142.96 2.40L146.66-10.31L154.13-10.31L144.21 18.53Q142.90 21.90 141.36 24.26Q139.82 26.63 137.60 27.85Q135.38 29.08 132.18 29.08ZM165.70 18.59L165.70 18.59Q163.13 18.59 161.25 17.48Q159.37 16.37 158.35 14.46Q157.32 12.55 157.32 10.15L157.32 10.15Q157.32 5.71 161.14 3.20Q164.96 0.69 173.39-0.22L173.39-0.22Q173.34-1.53 172.88-2.56Q172.43-3.58 171.40-4.18Q170.37-4.78 168.72-4.78L168.72-4.78Q166.84-4.78 164.99-4.04Q163.13-3.30 161.14-2.16L161.14-2.16L158.35-7.29Q160.06-8.31 161.97-9.17Q163.88-10.02 165.93-10.51Q167.98-10.99 170.20-10.99L170.20-10.99Q173.79-10.99 176.24-9.57Q178.70-8.14 179.95-5.38Q181.20-2.61 181.20 1.60L181.20 1.60L181.20 17.91L174.82 17.91L174.25 14.94L174.08 14.94Q172.25 16.54 170.17 17.56Q168.09 18.59 165.70 18.59ZM168.26 12.55L168.26 12.55Q169.80 12.55 170.97 11.84Q172.14 11.12 173.39 9.93L173.39 9.93L173.39 4.51Q170.15 4.97 168.26 5.68Q166.38 6.39 165.59 7.39Q164.79 8.39 164.79 9.53L164.79 9.53Q164.79 11.07 165.76 11.81Q166.73 12.55 168.26 12.55ZM196.31 17.91L188.56 17.91L188.56-10.31L194.88-10.31L195.45-6.60L195.68-6.60Q197.39-8.37 199.44-9.68Q201.50-10.99 204.23-10.99L204.23-10.99Q207.25-10.99 209.13-9.71Q211.01-8.43 212.04-6.15L212.04-6.15Q213.92-8.14 216.06-9.57Q218.20-10.99 220.93-10.99L220.93-10.99Q225.49-10.99 227.60-7.97Q229.71-4.95 229.71 0.35L229.71 0.35L229.71 17.91L221.96 17.91L221.96 1.32Q221.96-1.87 221.05-3.10Q220.13-4.32 218.20-4.32L218.20-4.32Q217.00-4.32 215.75-3.61Q214.49-2.90 213.01-1.36L213.01-1.36L213.01 17.91L205.26 17.91L205.26 1.32Q205.26-1.87 204.34-3.10Q203.43-4.32 201.50-4.32L201.50-4.32Q199.16-4.32 196.31-1.36L196.31-1.36L196.31 17.91Z"/></g>
</svg>