<svg xmlns="http://www.w3.org/2000/svg" xmlns:xlink="http://www.w3.org/1999/xlink" version="1.1" width="1000" height="1000" viewBox="0 0 1000 1000" xml:space="preserve">
<desc>Created with Fabric.js 3.5.0</desc>
<defs>
</defs>
<rect x="0" y="0" width="100%" height="100%" fill="rgba(255,255,255,0)"/>
<g transform="matrix(3.651 0 0 3.651 500.004 381.2556)" id="147278">
<g style="" vector-effect="non-scaling-stroke">
		<g transform="matrix(1 0 0 1 -0.005 0)" id="Layer_1-2">
<path style="stroke: none; stroke-width: 1; stroke-dasharray: none; stroke-linecap: butt; stroke-dashoffset: 0; stroke-linejoin: miter; stroke-miterlimit: 4; is-custom-font: none; font-file-url: none; fill: rgb(255,255,255); fill-rule: nonzero; opacity: 1;" transform=" translate(-124.495, -34)" d="M 227.81 0 H 21.19 C 9.49 0 0 9 0 20 V 34 c 0 11 9.49 20 21.19 20 H 185.43 l 11.65 14 L 209.8 54 h 18 c 11.7 0 21.19 -9 21.19 -20 V 20 C 249 9 239.51 0 227.81 0 Z" stroke-linecap="round"/>
</g>
		<g transform="matrix(1 0 0 1 -74.49 -7.18)" id="Layer_1-2">
<circle style="stroke: none; stroke-width: 1; stroke-dasharray: none; stroke-linecap: butt; stroke-dashoffset: 0; stroke-linejoin: miter; stroke-miterlimit: 4; is-custom-font: none; font-file-url: none; fill: rgb(254,199,60); fill-rule: nonzero; opacity: 1;" cx="0" cy="0" r="13.5"/>
</g>
		<g transform="matrix(1 0 0 1 -69.12 2.294)" id="Layer_1-2">
<path style="stroke: none; stroke-width: 1; stroke-dasharray: none; stroke-linecap: butt; stroke-dashoffset: 0; stroke-linejoin: miter; stroke-miterlimit: 4; is-custom-font: none; font-file-url: none; fill: rgb(240,58,22); fill-rule: nonzero; opacity: 1;" transform=" translate(-55.38, -36.294)" d="M 55.36 32.32 a 19.15 19.15 0 0 1 2.09 3.06 a 8.33 8.33 0 0 1 0.76 2.84 A 2.43 2.43 0 0 1 57.4 40 a 2 2 0 0 1 -2 0 c -0.39 -0.2 -0.89 -0.52 -1.62 -2.18 a 18 18 0 0 1 -1.23 -4.17 Z" stroke-linecap="round"/>
</g>
		<g transform="matrix(1 0 0 1 -79.675 -10.9786)" id="Layer_1-2">
<path style="stroke: rgb(0,0,0); stroke-width: 1.68; stroke-dasharray: none; stroke-linecap: round; stroke-dashoffset: 0; stroke-linejoin: miter; stroke-miterlimit: 10; is-custom-font: none; font-file-url: none; fill: none; fill-rule: nonzero; opacity: 1;" transform=" translate(-44.825, -23.0214)" d="M 47.27 23.82 a 2.67 2.67 0 0 0 -4.89 0" stroke-linecap="round"/>
</g>
		<g transform="matrix(1 0 0 1 -69.945 -10.9786)" id="Layer_1-2">
<path style="stroke: rgb(0,0,0); stroke-width: 1.68; stroke-dasharray: none; stroke-linecap: round; stroke-dashoffset: 0; stroke-linejoin: miter; stroke-miterlimit: 10; is-custom-font: none; font-file-url: none; fill: none; fill-rule: nonzero; opacity: 1;" transform=" translate(-54.555, -23.0214)" d="M 57 23.82 a 2.67 2.67 0 0 0 -4.89 0" stroke-linecap="round"/>
</g>
		<g transform="matrix(1 0 0 1 -74.495 -1.6724)" id="Layer_1-2">
<path style="stroke: rgb(0,0,0); stroke-width: 2; stroke-dasharray: none; stroke-linecap: round; stroke-dashoffset: 0; stroke-linejoin: round; stroke-miterlimit: 4; is-custom-font: none; font-file-url: none; fill: none; fill-rule: nonzero; opacity: 1;" transform=" translate(-50.005, -32.3276)" d="M 42.51 30.76 a 9.4 9.4 0 0 0 6.87 3.75 a 9.16 9.16 0 0 0 8.12 -4.37" stroke-linecap="round"/>
</g>
		<g transform="matrix(1 0 0 1 -74.5003 -7.1794)" id="Layer_1-2">
<path style="stroke: rgb(0,0,0); stroke-width: 2; stroke-dasharray: none; stroke-linecap: butt; stroke-dashoffset: 0; stroke-linejoin: miter; stroke-miterlimit: 10; is-custom-font: none; font-file-url: none; fill: none; fill-rule: nonzero; opacity: 1;" transform=" translate(-49.9997, -26.8207)" d="M 55.07 39.87 a 1.88 1.88 0 0 0 0.59 0.45 a 2 2 0 0 0 2 0 a 2.48 2.48 0 0 0 0.82 -1.81 a 2.74 2.74 0 0 0 0 -0.55 a 14 14 0 1 0 -3.41 1.91 Z" stroke-linecap="round"/>
</g>
		<g transform="matrix(1 0 0 1 -35.4354 -7.194)" id="Layer_1-2">
<path style="stroke: none; stroke-width: 1; stroke-dasharray: none; stroke-linecap: butt; stroke-dashoffset: 0; stroke-linejoin: miter; stroke-miterlimit: 4; is-custom-font: none; font-file-url: none; fill: rgb(36,31,66); fill-rule: nonzero; opacity: 1;" transform=" translate(-89.0646, -26.8059)" d="M 89.06 32.58 a 5.88 5.88 0 0 1 -2.45 -0.47 A 3.53 3.53 0 0 1 85 30.65 a 5.12 5.12 0 0 1 -0.62 -2.45 c 0 -0.46 0 -0.92 0 -1.36 s 0 -0.91 0 -1.38 A 4.85 4.85 0 0 1 85 23 a 3.72 3.72 0 0 1 1.62 -1.47 a 6.06 6.06 0 0 1 4.82 0 A 3.77 3.77 0 0 1 93.11 23 a 5.07 5.07 0 0 1 0.64 2.43 q 0 0.7 0 1.38 c 0 0.44 0 0.9 0 1.36 a 5.12 5.12 0 0 1 -0.63 2.45 a 3.51 3.51 0 0 1 -1.61 1.46 A 5.88 5.88 0 0 1 89.06 32.58 Z m 0 -1.84 a 2.32 2.32 0 0 0 1.69 -0.62 a 2.76 2.76 0 0 0 0.71 -2 c 0 -0.47 0 -0.91 0 -1.31 s 0 -0.83 0 -1.29 A 3.43 3.43 0 0 0 91.11 24 a 1.87 1.87 0 0 0 -0.84 -0.85 a 2.92 2.92 0 0 0 -2.41 0 A 2 2 0 0 0 87 24 a 3.58 3.58 0 0 0 -0.35 1.51 c 0 0.46 0 0.89 0 1.29 s 0 0.84 0 1.31 a 2.81 2.81 0 0 0 0.71 2 A 2.31 2.31 0 0 0 89.06 30.74 Z" stroke-linecap="round"/>
</g>
		<g transform="matrix(1 0 0 1 -22.6178 -5.8419)" id="Layer_1-2">
<path style="stroke: none; stroke-width: 1; stroke-dasharray: none; stroke-linecap: butt; stroke-dashoffset: 0; stroke-linejoin: miter; stroke-miterlimit: 4; is-custom-font: none; font-file-url: none; fill: rgb(36,31,66); fill-rule: nonzero; opacity: 1;" transform=" translate(-101.8821, -28.1581)" d="M 96.07 32.42 a 0.41 0.41 0 0 1 -0.28 -0.11 a 0.4 0.4 0 0 1 -0.11 -0.27 V 24.49 a 0.38 0.38 0 0 1 0.39 -0.39 h 1.24 a 0.38 0.38 0 0 1 0.39 0.39 V 25 a 2.72 2.72 0 0 1 0.9 -0.76 a 2.87 2.87 0 0 1 1.35 -0.33 a 2.54 2.54 0 0 1 2.55 1.42 a 2.77 2.77 0 0 1 1.06 -1 a 3.23 3.23 0 0 1 3.06 0 a 2.71 2.71 0 0 1 1.07 1.17 a 4.33 4.33 0 0 1 0.39 2 V 32 a 0.4 0.4 0 0 1 -0.11 0.27 a 0.39 0.39 0 0 1 -0.27 0.11 h -1.31 a 0.41 0.41 0 0 1 -0.28 -0.11 A 0.4 0.4 0 0 1 106 32 V 27.57 a 2.58 2.58 0 0 0 -0.21 -1.14 a 1.22 1.22 0 0 0 -0.56 -0.6 a 1.66 1.66 0 0 0 -0.78 -0.18 a 1.49 1.49 0 0 0 -0.7 0.18 a 1.35 1.35 0 0 0 -0.58 0.6 a 2.43 2.43 0 0 0 -0.22 1.14 V 32 a 0.37 0.37 0 0 1 -0.12 0.27 a 0.37 0.37 0 0 1 -0.27 0.11 h -1.31 a 0.37 0.37 0 0 1 -0.27 -0.11 a 0.36 0.36 0 0 1 -0.11 -0.27 V 27.57 a 2.42 2.42 0 0 0 -0.23 -1.14 a 1.38 1.38 0 0 0 -0.57 -0.6 a 1.67 1.67 0 0 0 -0.76 -0.18 a 1.49 1.49 0 0 0 -0.72 0.19 a 1.38 1.38 0 0 0 -0.57 0.6 a 2.35 2.35 0 0 0 -0.23 1.13 V 32 a 0.36 0.36 0 0 1 -0.11 0.27 a 0.37 0.37 0 0 1 -0.27 0.11 Z" stroke-linecap="round"/>
</g>
		<g transform="matrix(1 0 0 1 -11.5902 -6.3795)" id="Layer_1-2">
<path style="stroke: none; stroke-width: 1; stroke-dasharray: none; stroke-linecap: butt; stroke-dashoffset: 0; stroke-linejoin: miter; stroke-miterlimit: 4; is-custom-font: none; font-file-url: none; fill: rgb(36,31,66); fill-rule: nonzero; opacity: 1;" transform=" translate(-112.9098, -27.6205)" d="M 110.45 28.53 a 0.34 0.34 0 0 1 -0.28 -0.11 a 0.36 0.36 0 0 1 -0.1 -0.27 V 27.09 a 0.39 0.39 0 0 1 0.1 -0.27 a 0.38 0.38 0 0 1 0.28 -0.11 h 4.91 a 0.37 0.37 0 0 1 0.27 0.11 a 0.37 0.37 0 0 1 0.12 0.27 v 1.06 a 0.34 0.34 0 0 1 -0.12 0.27 a 0.33 0.33 0 0 1 -0.27 0.11 Z" stroke-linecap="round"/>
</g>
		<g transform="matrix(1 0 0 1 -2.7141 -5.8206)" id="Layer_1-2">
<path style="stroke: none; stroke-width: 1; stroke-dasharray: none; stroke-linecap: butt; stroke-dashoffset: 0; stroke-linejoin: miter; stroke-miterlimit: 4; is-custom-font: none; font-file-url: none; fill: rgb(36,31,66); fill-rule: nonzero; opacity: 1;" transform=" translate(-121.7859, -28.1794)" d="M 118.19 32.42 a 0.38 0.38 0 0 1 -0.38 -0.38 V 24.49 a 0.41 0.41 0 0 1 0.11 -0.28 a 0.4 0.4 0 0 1 0.27 -0.11 h 1.32 a 0.4 0.4 0 0 1 0.27 0.11 a 0.41 0.41 0 0 1 0.11 0.28 v 0.65 a 3.48 3.48 0 0 1 1.06 -0.86 a 3.55 3.55 0 0 1 1.61 -0.34 a 3.23 3.23 0 0 1 1.7 0.44 a 2.91 2.91 0 0 1 1.11 1.24 a 4.32 4.32 0 0 1 0.39 1.92 V 32 a 0.4 0.4 0 0 1 -0.11 0.27 a 0.39 0.39 0 0 1 -0.27 0.11 H 124 a 0.37 0.37 0 0 1 -0.27 -0.11 a 0.36 0.36 0 0 1 -0.11 -0.27 v -4.4 a 2.18 2.18 0 0 0 -0.46 -1.46 a 1.65 1.65 0 0 0 -1.32 -0.53 a 1.74 1.74 0 0 0 -1.33 0.53 a 2 2 0 0 0 -0.49 1.46 V 32 a 0.37 0.37 0 0 1 -0.12 0.27 a 0.37 0.37 0 0 1 -0.27 0.11 Z" stroke-linecap="round"/>
</g>
		<g transform="matrix(1 0 0 1 6.98 -5.7385)" id="Layer_1-2">
<path style="stroke: none; stroke-width: 1; stroke-dasharray: none; stroke-linecap: butt; stroke-dashoffset: 0; stroke-linejoin: miter; stroke-miterlimit: 4; is-custom-font: none; font-file-url: none; fill: rgb(36,31,66); fill-rule: nonzero; opacity: 1;" transform=" translate(-131.48, -28.2615)" d="M 131.47 32.58 a 4.65 4.65 0 0 1 -2.15 -0.45 A 3.18 3.18 0 0 1 128 30.87 a 4.57 4.57 0 0 1 -0.52 -1.91 c 0 -0.19 0 -0.42 0 -0.7 s 0 -0.51 0 -0.7 a 4.27 4.27 0 0 1 0.54 -1.92 a 3.24 3.24 0 0 1 1.34 -1.25 a 5.22 5.22 0 0 1 4.24 0 a 3.33 3.33 0 0 1 1.35 1.25 a 4.27 4.27 0 0 1 0.53 1.92 c 0 0.19 0 0.42 0 0.7 s 0 0.51 0 0.7 a 4.29 4.29 0 0 1 -0.52 1.91 a 3.06 3.06 0 0 1 -1.33 1.26 A 4.62 4.62 0 0 1 131.47 32.58 Z m 0 -1.58 a 1.65 1.65 0 0 0 1.32 -0.54 a 2.58 2.58 0 0 0 0.51 -1.58 c 0 -0.16 0 -0.36 0 -0.62 s 0 -0.46 0 -0.62 a 2.58 2.58 0 0 0 -0.51 -1.58 a 1.87 1.87 0 0 0 -2.63 0 a 2.52 2.52 0 0 0 -0.51 1.58 c 0 0.16 0 0.36 0 0.62 s 0 0.46 0 0.62 a 2.52 2.52 0 0 0 0.51 1.58 A 1.64 1.64 0 0 0 131.47 31 Z" stroke-linecap="round"/>
</g>
		<g transform="matrix(1 0 0 1 18.9622 -5.8414)" id="Layer_1-2">
<path style="stroke: none; stroke-width: 1; stroke-dasharray: none; stroke-linecap: butt; stroke-dashoffset: 0; stroke-linejoin: miter; stroke-miterlimit: 4; is-custom-font: none; font-file-url: none; fill: rgb(36,31,66); fill-rule: nonzero; opacity: 1;" transform=" translate(-143.4622, -28.1586)" d="M 137.65 32.42 a 0.37 0.37 0 0 1 -0.27 -0.11 a 0.37 0.37 0 0 1 -0.12 -0.27 V 24.49 a 0.38 0.38 0 0 1 0.12 -0.28 a 0.37 0.37 0 0 1 0.27 -0.11 h 1.25 a 0.4 0.4 0 0 1 0.27 0.11 a 0.41 0.41 0 0 1 0.11 0.28 V 25 a 2.82 2.82 0 0 1 0.9 -0.76 a 2.88 2.88 0 0 1 1.36 -0.33 a 2.54 2.54 0 0 1 2.54 1.42 a 2.84 2.84 0 0 1 1.06 -1 a 3.13 3.13 0 0 1 1.55 -0.39 a 3.08 3.08 0 0 1 1.51 0.38 a 2.71 2.71 0 0 1 1.07 1.17 a 4.33 4.33 0 0 1 0.39 2 V 32 a 0.36 0.36 0 0 1 -0.11 0.27 a 0.37 0.37 0 0 1 -0.27 0.11 H 148 a 0.37 0.37 0 0 1 -0.27 -0.11 a 0.37 0.37 0 0 1 -0.12 -0.27 V 27.57 a 2.59 2.59 0 0 0 -0.2 -1.14 a 1.31 1.31 0 0 0 -0.56 -0.6 a 1.73 1.73 0 0 0 -0.79 -0.18 a 1.52 1.52 0 0 0 -0.7 0.18 a 1.35 1.35 0 0 0 -0.58 0.6 a 2.43 2.43 0 0 0 -0.22 1.14 V 32 a 0.4 0.4 0 0 1 -0.11 0.27 a 0.41 0.41 0 0 1 -0.28 0.11 h -1.31 a 0.38 0.38 0 0 1 -0.38 -0.38 V 27.57 a 2.42 2.42 0 0 0 -0.23 -1.14 a 1.33 1.33 0 0 0 -0.57 -0.6 a 1.66 1.66 0 0 0 -0.75 -0.18 a 1.44 1.44 0 0 0 -0.72 0.19 a 1.35 1.35 0 0 0 -0.58 0.6 a 2.36 2.36 0 0 0 -0.22 1.13 V 32 a 0.37 0.37 0 0 1 -0.12 0.27 a 0.37 0.37 0 0 1 -0.27 0.11 Z" stroke-linecap="round"/>
</g>
		<g transform="matrix(1 0 0 1 29.9597 -6.3795)" id="Layer_1-2">
<path style="stroke: none; stroke-width: 1; stroke-dasharray: none; stroke-linecap: butt; stroke-dashoffset: 0; stroke-linejoin: miter; stroke-miterlimit: 4; is-custom-font: none; font-file-url: none; fill: rgb(36,31,66); fill-rule: nonzero; opacity: 1;" transform=" translate(-154.4597, -27.6205)" d="M 152 28.53 a 0.34 0.34 0 0 1 -0.28 -0.11 a 0.36 0.36 0 0 1 -0.1 -0.27 V 27.09 a 0.39 0.39 0 0 1 0.1 -0.27 a 0.38 0.38 0 0 1 0.28 -0.11 h 4.91 a 0.41 0.41 0 0 1 0.28 0.11 a 0.4 0.4 0 0 1 0.11 0.27 v 1.06 a 0.38 0.38 0 0 1 -0.39 0.38 Z" stroke-linecap="round"/>
</g>
		<g transform="matrix(1 0 0 1 38.8908 -5.8206)" id="Layer_1-2">
<path style="stroke: none; stroke-width: 1; stroke-dasharray: none; stroke-linecap: butt; stroke-dashoffset: 0; stroke-linejoin: miter; stroke-miterlimit: 4; is-custom-font: none; font-file-url: none; fill: rgb(36,31,66); fill-rule: nonzero; opacity: 1;" transform=" translate(-163.3908, -28.1793)" d="M 159.78 32.42 a 0.41 0.41 0 0 1 -0.28 -0.11 a 0.4 0.4 0 0 1 -0.11 -0.27 V 24.49 a 0.38 0.38 0 0 1 0.39 -0.39 h 1.31 a 0.38 0.38 0 0 1 0.38 0.39 v 0.65 a 3.41 3.41 0 0 1 1.07 -0.86 a 3.48 3.48 0 0 1 1.6 -0.34 a 3.21 3.21 0 0 1 1.7 0.44 A 2.91 2.91 0 0 1 167 25.62 a 4.32 4.32 0 0 1 0.39 1.92 V 32 a 0.36 0.36 0 0 1 -0.11 0.27 a 0.37 0.37 0 0 1 -0.27 0.11 h -1.41 a 0.38 0.38 0 0 1 -0.38 -0.38 v -4.4 a 2.13 2.13 0 0 0 -0.46 -1.46 a 1.65 1.65 0 0 0 -1.32 -0.53 a 1.77 1.77 0 0 0 -1.33 0.53 a 2 2 0 0 0 -0.49 1.46 V 32 a 0.4 0.4 0 0 1 -0.11 0.27 a 0.41 0.41 0 0 1 -0.28 0.11 Z" stroke-linecap="round"/>
</g>
		<g transform="matrix(1 0 0 1 48.56 -5.7399)" id="Layer_1-2">
<path style="stroke: none; stroke-width: 1; stroke-dasharray: none; stroke-linecap: butt; stroke-dashoffset: 0; stroke-linejoin: miter; stroke-miterlimit: 4; is-custom-font: none; font-file-url: none; fill: rgb(36,31,66); fill-rule: nonzero; opacity: 1;" transform=" translate(-173.06, -28.2601)" d="M 173.06 32.58 a 4.7 4.7 0 0 1 -2.16 -0.45 a 3.09 3.09 0 0 1 -1.32 -1.26 a 4.29 4.29 0 0 1 -0.52 -1.91 c 0 -0.19 0 -0.42 0 -0.7 s 0 -0.51 0 -0.7 a 4.27 4.27 0 0 1 0.53 -1.92 a 3.27 3.27 0 0 1 1.35 -1.25 a 4.55 4.55 0 0 1 2.12 -0.45 a 4.61 4.61 0 0 1 2.12 0.45 a 3.24 3.24 0 0 1 1.34 1.25 a 4.4 4.4 0 0 1 0.54 1.92 c 0 0.19 0 0.42 0 0.7 s 0 0.51 0 0.7 a 4.57 4.57 0 0 1 -0.52 1.91 a 3.18 3.18 0 0 1 -1.33 1.26 A 4.65 4.65 0 0 1 173.06 32.58 Z m 0 -1.58 a 1.64 1.64 0 0 0 1.31 -0.54 a 2.52 2.52 0 0 0 0.51 -1.58 c 0 -0.16 0 -0.36 0 -0.62 s 0 -0.46 0 -0.62 a 2.52 2.52 0 0 0 -0.51 -1.58 a 1.87 1.87 0 0 0 -2.63 0 a 2.52 2.52 0 0 0 -0.51 1.58 c 0 0.16 0 0.36 0 0.62 s 0 0.46 0 0.62 a 2.52 2.52 0 0 0 0.51 1.58 A 1.65 1.65 0 0 0 173.06 31 Z" stroke-linecap="round"/>
</g>
		<g transform="matrix(1 0 0 1 60.5522 -5.8418)" id="Layer_1-2">
<path style="stroke: none; stroke-width: 1; stroke-dasharray: none; stroke-linecap: butt; stroke-dashoffset: 0; stroke-linejoin: miter; stroke-miterlimit: 4; is-custom-font: none; font-file-url: none; fill: rgb(36,31,66); fill-rule: nonzero; opacity: 1;" transform=" translate(-185.0522, -28.1583)" d="M 179.23 32.42 a 0.38 0.38 0 0 1 -0.38 -0.38 V 24.49 a 0.41 0.41 0 0 1 0.11 -0.28 a 0.4 0.4 0 0 1 0.27 -0.11 h 1.25 a 0.37 0.37 0 0 1 0.27 0.11 a 0.38 0.38 0 0 1 0.12 0.28 V 25 a 2.72 2.72 0 0 1 0.9 -0.76 a 2.87 2.87 0 0 1 1.35 -0.33 a 2.53 2.53 0 0 1 2.54 1.42 a 2.79 2.79 0 0 1 1.07 -1 a 3.23 3.23 0 0 1 3.06 0 a 2.71 2.71 0 0 1 1.07 1.17 a 4.33 4.33 0 0 1 0.39 2 V 32 a 0.38 0.38 0 0 1 -0.38 0.38 h -1.32 a 0.38 0.38 0 0 1 -0.38 -0.38 V 27.57 a 2.58 2.58 0 0 0 -0.21 -1.14 a 1.26 1.26 0 0 0 -0.56 -0.6 a 1.66 1.66 0 0 0 -0.78 -0.18 a 1.56 1.56 0 0 0 -0.71 0.18 a 1.38 1.38 0 0 0 -0.57 0.6 a 2.42 2.42 0 0 0 -0.23 1.14 V 32 a 0.36 0.36 0 0 1 -0.11 0.27 a 0.37 0.37 0 0 1 -0.27 0.11 h -1.31 a 0.41 0.41 0 0 1 -0.28 -0.11 A 0.4 0.4 0 0 1 184 32 V 27.57 a 2.43 2.43 0 0 0 -0.22 -1.14 a 1.35 1.35 0 0 0 -0.58 -0.6 a 1.6 1.6 0 0 0 -0.75 -0.18 a 1.49 1.49 0 0 0 -0.72 0.19 a 1.4 1.4 0 0 0 -0.58 0.6 a 2.49 2.49 0 0 0 -0.22 1.13 V 32 a 0.38 0.38 0 0 1 -0.38 0.38 Z" stroke-linecap="round"/>
</g>
		<g transform="matrix(1 0 0 1 69.865 -2.765)" id="Layer_1-2">
<path style="stroke: none; stroke-width: 1; stroke-dasharray: none; stroke-linecap: butt; stroke-dashoffset: 0; stroke-linejoin: miter; stroke-miterlimit: 4; is-custom-font: none; font-file-url: none; fill: rgb(36,31,66); fill-rule: nonzero; opacity: 1;" transform=" translate(-194.365, -31.235)" d="M 193.57 32.42 a 0.37 0.37 0 0 1 -0.27 -0.11 a 0.37 0.37 0 0 1 -0.12 -0.27 V 30.45 a 0.4 0.4 0 0 1 0.12 -0.29 a 0.37 0.37 0 0 1 0.27 -0.11 h 1.6 a 0.37 0.37 0 0 1 0.27 0.11 a 0.44 0.44 0 0 1 0.11 0.29 V 32 a 0.4 0.4 0 0 1 -0.11 0.27 a 0.37 0.37 0 0 1 -0.27 0.11 Z" stroke-linecap="round"/>
</g>
		<g transform="matrix(1 0 0 1 74.155 -2.765)" id="Layer_1-2">
<path style="stroke: none; stroke-width: 1; stroke-dasharray: none; stroke-linecap: butt; stroke-dashoffset: 0; stroke-linejoin: miter; stroke-miterlimit: 4; is-custom-font: none; font-file-url: none; fill: rgb(36,31,66); fill-rule: nonzero; opacity: 1;" transform=" translate(-198.655, -31.235)" d="M 197.86 32.42 a 0.41 0.41 0 0 1 -0.28 -0.11 a 0.4 0.4 0 0 1 -0.11 -0.27 V 30.45 a 0.44 0.44 0 0 1 0.11 -0.29 a 0.41 0.41 0 0 1 0.28 -0.11 h 1.6 a 0.4 0.4 0 0 1 0.27 0.11 a 0.44 0.44 0 0 1 0.11 0.29 V 32 a 0.38 0.38 0 0 1 -0.38 0.38 Z" stroke-linecap="round"/>
</g>
		<g transform="matrix(1 0 0 1 78.445 -2.765)" id="Layer_1-2">
<path style="stroke: none; stroke-width: 1; stroke-dasharray: none; stroke-linecap: butt; stroke-dashoffset: 0; stroke-linejoin: miter; stroke-miterlimit: 4; is-custom-font: none; font-file-url: none; fill: rgb(36,31,66); fill-rule: nonzero; opacity: 1;" transform=" translate(-202.945, -31.235)" d="M 202.14 32.42 a 0.38 0.38 0 0 1 -0.38 -0.38 V 30.45 a 0.44 0.44 0 0 1 0.11 -0.29 a 0.4 0.4 0 0 1 0.27 -0.11 h 1.61 a 0.4 0.4 0 0 1 0.27 0.11 a 0.44 0.44 0 0 1 0.11 0.29 V 32 a 0.38 0.38 0 0 1 -0.38 0.38 Z" stroke-linecap="round"/>
</g>
</g>
</g>
<g transform="matrix(2.9332 0 0 0.6659 555.6348 350.5905)" id="86461" clip-path="url(#CLIPPATH_3)">
<clipPath id="CLIPPATH_3">
	<rect transform="matrix(1 0 0 1 0.0001 0.0002)" id="clip0_302_100" x="-79" y="-79" rx="0" ry="0" width="158" height="158"/>
</clipPath>
<path style="stroke: rgb(255,255,255); stroke-width: 5; stroke-dasharray: none; stroke-linecap: butt; stroke-dashoffset: 0; stroke-linejoin: miter; stroke-miterlimit: 4; is-custom-font: none; font-file-url: none; fill: rgb(255,255,255); fill-rule: nonzero; opacity: 1;" vector-effect="non-scaling-stroke" transform=" translate(-78.9999, -78.9998)" d="M 154.685 0.000367219 H 3.31409 C 1.48378 0.000367219 0 1.48415 0 3.31478 V 154.686 C 0 156.516 1.48378 158 3.31409 158 H 154.685 C 156.515 158 157.999 156.516 157.999 154.686 V 3.31478 C 158 3.26912 158 3.22347 157.999 3.17813 C 157.962 1.38523 156.478 -0.0373614 154.685 0.000367219 Z" stroke-linecap="round"/>
</g>
<g transform="matrix(1 0 0 1 558.5397 351.7194)" style="" id="894597">
		
<path xml:space="preserve" font-family="Assistant" font-size="59" font-style="normal" font-weight="bold" style="stroke: none; stroke-width: 1; stroke-dasharray: none; stroke-linecap: butt; stroke-dashoffset: 0; stroke-linejoin: miter; stroke-miterlimit: 4; is-custom-font: none; font-file-url: none; fill: rgb(0,0,0); fill-rule: nonzero; opacity: 1; white-space: pre;" d="M-225.56 18.53L-233.29 18.53L-233.29-19.99L-224.97-19.99L-214.29 0.01L-210.45 8.39L-210.22 8.39Q-210.51 5.32-210.87 1.66Q-211.22-2.00-211.22-5.36L-211.22-5.36L-211.22-19.99L-203.55-19.99L-203.55 18.53L-211.81 18.53L-222.49-1.47L-226.38-9.84L-226.62-9.84Q-226.32-6.72-225.94-3.12Q-225.56 0.48-225.56 3.78L-225.56 3.78L-225.56 18.53ZM-192.05 30.10L-192.05 30.10Q-193.34 30.10-194.29 29.92Q-195.23 29.74-196.12 29.51L-196.12 29.51L-194.64 23.37Q-194.23 23.43-193.67 23.58Q-193.11 23.73-192.64 23.73L-192.64 23.73Q-190.45 23.73-189.18 22.55Q-187.92 21.37-187.33 19.54L-187.33 19.54L-186.85 17.89L-198.18-10.67L-190.04-10.67L-185.61 2.49Q-184.97 4.43-184.38 6.50Q-183.78 8.56-183.20 10.75L-183.20 10.75L-182.96 10.75Q-182.43 8.68-181.93 6.59Q-181.43 4.49-180.89 2.49L-180.89 2.49L-177.06-10.67L-169.33-10.67L-179.60 19.18Q-180.95 22.66-182.55 25.11Q-184.14 27.56-186.44 28.83Q-188.74 30.10-192.05 30.10ZM-157.35 19.24L-157.35 19.24Q-160.01 19.24-161.96 18.09Q-163.90 16.94-164.96 14.96Q-166.03 12.99-166.03 10.51L-166.03 10.51Q-166.03 5.91-162.07 3.31Q-158.12 0.72-149.39-0.23L-149.39-0.23Q-149.45-1.58-149.92-2.65Q-150.39-3.71-151.45-4.33Q-152.52-4.95-154.23-4.95L-154.23-4.95Q-156.17-4.95-158.09-4.18Q-160.01-3.41-162.07-2.23L-162.07-2.23L-164.96-7.54Q-163.19-8.61-161.22-9.49Q-159.24-10.38-157.12-10.88Q-154.99-11.38-152.69-11.38L-152.69-11.38Q-148.98-11.38-146.44-9.90Q-143.90-8.43-142.60-5.57Q-141.31-2.71-141.31 1.66L-141.31 1.66L-141.31 18.53L-147.91 18.53L-148.50 15.47L-148.68 15.47Q-150.57 17.12-152.72 18.18Q-154.88 19.24-157.35 19.24ZM-154.70 12.99L-154.70 12.99Q-153.11 12.99-151.90 12.25Q-150.69 11.51-149.39 10.27L-149.39 10.27L-149.39 4.67Q-152.75 5.14-154.70 5.88Q-156.65 6.62-157.47 7.65Q-158.30 8.68-158.30 9.86L-158.30 9.86Q-158.30 11.45-157.29 12.22Q-156.29 12.99-154.70 12.99ZM-125.67 18.53L-133.69 18.53L-133.69-10.67L-127.15-10.67L-126.56-6.84L-126.32-6.84Q-124.55-8.66-122.43-10.02Q-120.30-11.38-117.47-11.38L-117.47-11.38Q-114.34-11.38-112.40-10.05Q-110.45-8.72-109.39-6.36L-109.39-6.36Q-107.44-8.43-105.23-9.90Q-103.01-11.38-100.18-11.38L-100.18-11.38Q-95.46-11.38-93.28-8.25Q-91.10-5.12-91.10 0.36L-91.10 0.36L-91.10 18.53L-99.12 18.53L-99.12 1.37Q-99.12-1.94-100.06-3.21Q-101.01-4.48-103.01-4.48L-103.01-4.48Q-104.25-4.48-105.55-3.74Q-106.85-3.00-108.38-1.41L-108.38-1.41L-108.38 18.53L-116.41 18.53L-116.41 1.37Q-116.41-1.94-117.35-3.21Q-118.30-4.48-120.30-4.48L-120.30-4.48Q-122.72-4.48-125.67-1.41L-125.67-1.41L-125.67 18.53ZM-70.51 6.50L-84.84 6.50L-84.84 0.72L-70.51 0.72L-70.51 6.50ZM-55.93 18.53L-63.96 18.53L-63.96-10.67L-57.41-10.67L-56.82-6.89L-56.58-6.89Q-54.69-8.72-52.42-10.05Q-50.15-11.38-47.14-11.38L-47.14-11.38Q-42.42-11.38-40.27-8.25Q-38.11-5.12-38.11 0.36L-38.11 0.36L-38.11 18.53L-46.20 18.53L-46.20 1.37Q-46.20-1.94-47.11-3.21Q-48.03-4.48-50.09-4.48L-50.09-4.48Q-51.86-4.48-53.10-3.68Q-54.34-2.88-55.93-1.41L-55.93-1.41L-55.93 18.53ZM-27.61 30.10L-27.61 30.10Q-28.91 30.10-29.85 29.92Q-30.80 29.74-31.68 29.51L-31.68 29.51L-30.21 23.37Q-29.80 23.43-29.23 23.58Q-28.67 23.73-28.20 23.73L-28.20 23.73Q-26.02 23.73-24.75 22.55Q-23.48 21.37-22.89 19.54L-22.89 19.54L-22.42 17.89L-33.75-10.67L-25.61-10.67L-21.18 2.49Q-20.53 4.43-19.94 6.50Q-19.35 8.56-18.76 10.75L-18.76 10.75L-18.53 10.75Q-18.00 8.68-17.49 6.59Q-16.99 4.49-16.46 2.49L-16.46 2.49L-12.63-10.67L-4.90-10.67L-15.16 19.18Q-16.52 22.66-18.11 25.11Q-19.71 27.56-22.01 28.83Q-24.31 30.10-27.61 30.10ZM7.08 19.24L7.08 19.24Q4.42 19.24 2.48 18.09Q0.53 16.94-0.53 14.96Q-1.59 12.99-1.59 10.51L-1.59 10.51Q-1.59 5.91 2.36 3.31Q6.31 0.72 15.04-0.23L15.04-0.23Q14.99-1.58 14.51-2.65Q14.04-3.71 12.98-4.33Q11.92-4.95 10.21-4.95L10.21-4.95Q8.26-4.95 6.34-4.18Q4.42-3.41 2.36-2.23L2.36-2.23L-0.53-7.54Q1.24-8.61 3.22-9.49Q5.19-10.38 7.32-10.88Q9.44-11.38 11.74-11.38L11.74-11.38Q15.46-11.38 17.99-9.90Q20.53-8.43 21.83-5.57Q23.13-2.71 23.13 1.66L23.13 1.66L23.13 18.53L16.52 18.53L15.93 15.47L15.75 15.47Q13.86 17.12 11.71 18.18Q9.56 19.24 7.08 19.24ZM9.73 12.99L9.73 12.99Q11.33 12.99 12.54 12.25Q13.75 11.51 15.04 10.27L15.04 10.27L15.04 4.67Q11.68 5.14 9.73 5.88Q7.79 6.62 6.96 7.65Q6.14 8.68 6.14 9.86L6.14 9.86Q6.14 11.45 7.14 12.22Q8.14 12.99 9.73 12.99ZM38.76 18.53L30.74 18.53L30.74-10.67L37.29-10.67L37.88-6.84L38.11-6.84Q39.88-8.66 42.01-10.02Q44.13-11.38 46.96-11.38L46.96-11.38Q50.09-11.38 52.04-10.05Q53.98-8.72 55.05-6.36L55.05-6.36Q56.99-8.43 59.21-9.90Q61.42-11.38 64.25-11.38L64.25-11.38Q68.97-11.38 71.15-8.25Q73.34-5.12 73.34 0.36L73.34 0.36L73.34 18.53L65.31 18.53L65.31 1.37Q65.31-1.94 64.37-3.21Q63.42-4.48 61.42-4.48L61.42-4.48Q60.18-4.48 58.88-3.74Q57.58-3.00 56.05-1.41L56.05-1.41L56.05 18.53L48.03 18.53L48.03 1.37Q48.03-1.94 47.08-3.21Q46.14-4.48 44.13-4.48L44.13-4.48Q41.71-4.48 38.76-1.41L38.76-1.41L38.76 18.53ZM93.93 6.50L79.59 6.50L79.59 0.72L93.93 0.72L93.93 6.50ZM108.50 18.53L100.48 18.53L100.48-10.67L107.03-10.67L107.62-6.89L107.85-6.89Q109.74-8.72 112.01-10.05Q114.28-11.38 117.29-11.38L117.29-11.38Q122.01-11.38 124.17-8.25Q126.32-5.12 126.32 0.36L126.32 0.36L126.32 18.53L118.24 18.53L118.24 1.37Q118.24-1.94 117.32-3.21Q116.41-4.48 114.34-4.48L114.34-4.48Q112.57-4.48 111.33-3.68Q110.09-2.88 108.50-1.41L108.50-1.41L108.50 18.53ZM136.82 30.10L136.82 30.10Q135.52 30.10 134.58 29.92Q133.63 29.74 132.75 29.51L132.75 29.51L134.22 23.37Q134.64 23.43 135.20 23.58Q135.76 23.73 136.23 23.73L136.23 23.73Q138.41 23.73 139.68 22.55Q140.95 21.37 141.54 19.54L141.54 19.54L142.01 17.89L130.68-10.67L138.83-10.67L143.25 2.49Q143.90 4.43 144.49 6.50Q145.08 8.56 145.67 10.75L145.67 10.75L145.91 10.75Q146.44 8.68 146.94 6.59Q147.44 4.49 147.97 2.49L147.97 2.49L151.81-10.67L159.54-10.67L149.27 19.18Q147.91 22.66 146.32 25.11Q144.73 27.56 142.43 28.83Q140.12 30.10 136.82 30.10ZM171.51 19.24L171.51 19.24Q168.86 19.24 166.91 18.09Q164.96 16.94 163.90 14.96Q162.84 12.99 162.84 10.51L162.84 10.51Q162.84 5.91 166.79 3.31Q170.75 0.72 179.48-0.23L179.48-0.23Q179.42-1.58 178.95-2.65Q178.47-3.71 177.41-4.33Q176.35-4.95 174.64-4.95L174.64-4.95Q172.69-4.95 170.78-4.18Q168.86-3.41 166.79-2.23L166.79-2.23L163.90-7.54Q165.67-8.61 167.65-9.49Q169.62-10.38 171.75-10.88Q173.87-11.38 176.17-11.38L176.17-11.38Q179.89-11.38 182.43-9.90Q184.96-8.43 186.26-5.57Q187.56-2.71 187.56 1.66L187.56 1.66L187.56 18.53L180.95 18.53L180.36 15.47L180.19 15.47Q178.30 17.12 176.14 18.18Q173.99 19.24 171.51 19.24ZM174.17 12.99L174.17 12.99Q175.76 12.99 176.97 12.25Q178.18 11.51 179.48 10.27L179.48 10.27L179.48 4.67Q176.11 5.14 174.17 5.88Q172.22 6.62 171.39 7.65Q170.57 8.68 170.57 9.86L170.57 9.86Q170.57 11.45 171.57 12.22Q172.57 12.99 174.17 12.99ZM203.20 18.53L195.17 18.53L195.17-10.67L201.72-10.67L202.31-6.84L202.55-6.84Q204.32-8.66 206.44-10.02Q208.56-11.38 211.40-11.38L211.40-11.38Q214.52-11.38 216.47-10.05Q218.42-8.72 219.48-6.36L219.48-6.36Q221.43-8.43 223.64-9.90Q225.85-11.38 228.68-11.38L228.68-11.38Q233.40-11.38 235.59-8.25Q237.77-5.12 237.77 0.36L237.77 0.36L237.77 18.53L229.75 18.53L229.75 1.37Q229.75-1.94 228.80-3.21Q227.86-4.48 225.85-4.48L225.85-4.48Q224.61-4.48 223.31-3.74Q222.02-3.00 220.48-1.41L220.48-1.41L220.48 18.53L212.46 18.53L212.46 1.37Q212.46-1.94 211.51-3.21Q210.57-4.48 208.56-4.48L208.56-4.48Q206.15-4.48 203.20-1.41L203.20-1.41L203.20 18.53Z"/></g>
</svg>